classDiagram
class IPlayer{
    <<interface>>
    +string name
    +int scores
    +GetTotalScores() : int
}
class Player{
    +string name
    +int scores
    +List~ICard~ hand
    +Player(string name, ICard card)
    +GetTotalScores() : int
}
class ICard{
    <<interface>>
    +int id
    +int rightFaceValue
    +int leftFaceValue 
    +IsDouble() : bool
    +GetValue() : int
}
class IDeck{
    <<interface>>
    -bool emptyDeck
    +isEmpty() : bool
}
class IBoard{
    <<interface>>
    +UpdateBoard(Card card) : void
    +GetBoard() : List~Card~
   
}
class Deck{
    -bool emptyDeck
    -List~ICard~ cards
    +isEmpty() : bool
}
class Board{
    -List~ICard~ playedCards
    +UpdateBoard(ICard card) : void
    +GetBoard() : List~ICard~
}
class Card{
    +int id
    +int rightFaceValue
    +int leftFaceValue   
    +Card(int id, int rightFaceValue, int leftFaceValue) 
    +IsDouble() : bool
    +GetValue() : int
}
class GameController{
    -IDeck deck
    -IBoard board
    -List~IPlayer~ players
    -Dictionary~IPlayer, List~Card~ hand
    -Dictionary~int id, Card~ moveOptions
    -IPlayer currentPlayer
    -int maxPlayers
    -Action OnGameStart
    -Action~IPlayer~ OnPlayerTurn
    -Action~bool~ OnGameOver
    +GameController(IPlayer, IDeck Deck, IBoard Board)
    +SetupPlayers(int playerCount) : void
    +AssignPlayerNames() : void
    +SetHandCard(IPlayer): void
    +GetHandCard(IPlayer):ICard card
    +DetermineFirstPlayer() : IPlayer
    +TurnOrder() : void
    +GetPlayableMoves(IPlayer player) : Dictionary~int id, Card~
    +ExecuteMove(int option) : bool
    +ValidateMove(Action~bool~ OnGameOver)
    +NextTurn(Action~IPlayer~ OnPlayerTurn)
    +PassTurn() : void
    +ShowBoard(List~Card~ playedCards) : void
    +ShowHand(List~Card~ hand) : void
    +GetValue(Card card) : int
    +SetScores(IPlayer player)
    +GetScores(IPlayer player)
    +CalculateScore() : int
    +StartGame(Action OnGameStart)
    +GetWinner() : IPlayer
    +CheckGameOver() : bool
    +GenerateCard(ICard card)
    +Shuffle() : void
    +DrawCard() : ICard
}
IPlayer --o GameController 
IDeck --o GameController
GameController o-- IBoard
Deck --|> IDeck 
Board --|> IBoard 
Player --|> IPlayer 
Deck o-- ICard
Board --o ICard
ICard <|.. Card 
